<?xml version="1.0" standalone="no"?>
<svg
  width="600"
  height="600"
  viewBox="0 0 600 600"
  xmlns="http://www.w3.org/2000/svg"
>
  <g transform="translate(300,300)">
    <path d="M148,-202.9C189.9,-173.4,220.5,-127.5,241,-75.6C261.5,-23.8,272,34,258.1,86C244.1,138,205.8,184.3,158.8,216.3C111.7,248.4,55.8,266.2,16.3,243.8C-23.3,221.4,-46.6,158.8,-80.7,122.6C-114.8,86.3,-159.6,76.4,-186.3,47.9C-213,19.4,-221.6,-27.7,-216.6,-78.8C-211.6,-129.9,-193.1,-185.1,-154.7,-215.8C-116.4,-246.5,-58.2,-252.8,-2.5,-249.3C53.1,-245.7,106.2,-232.5,148,-202.9Z" fill="#00c851" />
  </g>
</svg>
  