<svg id="Layer_1" data-name="Layer 1" xmlns="http://www.w3.org/2000/svg" xmlns:xlink="http://www.w3.org/1999/xlink" viewBox="0 0 515.69 485.96"><defs><linearGradient id="linear-gradient" x1="378.75" y1="386.24" x2="296.07" y2="463.46" gradientUnits="userSpaceOnUse"><stop offset="0.01"/><stop offset="0.13" stop-opacity="0.69"/><stop offset="1" stop-opacity="0"/></linearGradient><linearGradient id="linear-gradient-2" x1="264.81" y1="367.93" x2="233.61" y2="311.38" xlink:href="#linear-gradient"/><linearGradient id="linear-gradient-3" x1="425.31" y1="477.95" x2="312.98" y2="271.02" xlink:href="#linear-gradient"/><linearGradient id="linear-gradient-4" x1="384.7" y1="340.28" x2="441.38" y2="312.72" xlink:href="#linear-gradient"/><linearGradient id="linear-gradient-5" x1="258.34" y1="329.78" x2="252.87" y2="404.25" xlink:href="#linear-gradient"/><linearGradient id="linear-gradient-6" x1="308.76" y1="262.66" x2="377.92" y2="307.12" xlink:href="#linear-gradient"/><linearGradient id="linear-gradient-7" x1="279.14" y1="447.82" x2="102.34" y2="352.15" xlink:href="#linear-gradient"/><linearGradient id="linear-gradient-8" x1="74.65" y1="301.91" x2="181.36" y2="300.39" xlink:href="#linear-gradient"/><linearGradient id="linear-gradient-9" x1="4.4" y1="318.27" x2="151.74" y2="321.98" xlink:href="#linear-gradient"/><linearGradient id="linear-gradient-10" x1="46.32" y1="301.46" x2="183.21" y2="301.8" xlink:href="#linear-gradient"/><linearGradient id="linear-gradient-11" x1="101.68" y1="279.39" x2="102.18" y2="365.11" xlink:href="#linear-gradient"/><linearGradient id="linear-gradient-12" x1="71.88" y1="279.4" x2="72.39" y2="365.1" xlink:href="#linear-gradient"/><linearGradient id="linear-gradient-13" x1="41.32" y1="279.52" x2="41.83" y2="365.23" xlink:href="#linear-gradient"/><linearGradient id="linear-gradient-14" x1="253.29" y1="119.79" x2="255.22" y2="115.8" xlink:href="#linear-gradient"/><linearGradient id="linear-gradient-15" x1="197.41" y1="59.63" x2="237.87" y2="299.36" xlink:href="#linear-gradient"/></defs><title>Dream 2</title><path d="M520,350.57c-1.87,38.77-35.05,69.26-70.39,85.32s-74.52,22.29-109.77,38.55c-11.61,5.35-22.74,11.77-34.81,16a127.36,127.36,0,0,1-33.85,6.5,235.38,235.38,0,0,1-30.4-.18l-2.87-.2q-13.74-1-27.39-2.89l-.09,0c-10.89-1.54-21.73-3.56-32.44-6h-.07a400.58,400.58,0,0,1-83.63-29.21A421.17,421.17,0,0,1,27.71,418C9.27,404.47,6.28,395.42,4.87,372.19c-1.73-29,.33-59.22,14.66-85.11,11.91-21.51,31.36-38.33,41.84-60.57a94.61,94.61,0,0,0,4.8-12.41,142.34,142.34,0,0,0,4.35-18.71c3.93-23.38,3.76-48,11-70.75,9.56-30,31.83-54.86,58.36-71.77S197,26.44,227.92,20.47a514.63,514.63,0,0,1,74-8.43q8.84-.4,17.66-.56a244.63,244.63,0,0,1,28,.75A106.58,106.58,0,0,1,374.49,18c26.53,9.81,46.71,32.84,57.93,58.8s14.33,54.71,14.59,83c.18,20.71-1,42,5.92,61.51,7.36,20.66,23,37,36.6,54.31C506.58,297.29,521.29,323,520,350.57Z" transform="translate(-4.36 -11.4)" fill="#079a11" opacity="0.42" style="isolation:isolate"/><path d="M387.14,414.86c-.46-.87-.95-1.7-1.45-2.48A30.15,30.15,0,0,1,381.2,395c.21-4.28,1.32-8.73-.18-12.75-1.87-5-7.45-7.87-12.8-8.07s-10.52,1.74-15.46,3.81a249,249,0,0,0-49.14,27.54c-5.53,4-11,8.27-15.17,13.65-7,9-9.85,21.46-4.95,32,1.87,4,4.55,7.93,8.58,9.76a21.71,21.71,0,0,0,8.67,1.45,128.52,128.52,0,0,0,80-26.28c2.82-2.17,6.81-5.07,8.23-8.47C390.7,423.39,389.22,418.76,387.14,414.86Z" transform="translate(-4.36 -11.4)" fill="#079a11"/><path d="M387.14,414.86c-.46-.87-.95-1.7-1.45-2.48A30.15,30.15,0,0,1,381.2,395c.21-4.28,1.32-8.73-.18-12.75-1.87-5-7.45-7.87-12.8-8.07s-10.52,1.74-15.46,3.81a249,249,0,0,0-49.14,27.54c-5.53,4-11,8.27-15.17,13.65-7,9-9.85,21.46-4.95,32,1.87,4,4.55,7.93,8.58,9.76a21.71,21.71,0,0,0,8.67,1.45,128.52,128.52,0,0,0,80-26.28c2.82-2.17,6.81-5.07,8.23-8.47C390.7,423.39,389.22,418.76,387.14,414.86Z" transform="translate(-4.36 -11.4)" opacity="0.58" fill="url(#linear-gradient)"/><path d="M390.3,297.83q10.72,8.34,20.62,17.68A146.08,146.08,0,0,0,422,325.43c2.62,2,5.41,3.8,8.08,5.74,2.29,1.66,4.49,3.43,6.63,5.28,4.71,4.05,9.2,8.55,12,14.09s3.74,12.31,1.24,18a9.58,9.58,0,0,1-2.58,3.63c-2.71,2.21-6.63,2-10.07,1.33-17.43-3.2-32.82-13-47.71-22.63-4.25-2.74-8.67-5.65-11.12-10.07a27.16,27.16,0,0,1-2.71-9.63,108.36,108.36,0,0,1,.48-32.46c.56-3.37.86-7,4.85-6.18C384.48,293.23,387.61,295.74,390.3,297.83Z" transform="translate(-4.36 -11.4)" fill="#079a11"/><path d="M326.85,289.93a43.79,43.79,0,0,1-19.27,29.17c-3.23,2-5.36,4.86-7.73,7.36a16.62,16.62,0,0,1-6.77,4.67c-15.21,5.05-35.24,17.81-50.45,22.86-21,7-28.34,8.56-50.43,9.89a21.07,21.07,0,0,1-7.83-.94c-2.86-1-5.09-2.81-5.3-5.76-.36-5.49,6.59-8,12-9.06,47.18-9.5,71.38-50.47,115.26-70.23C321,271.26,329.89,272.73,326.85,289.93Z" transform="translate(-4.36 -11.4)" fill="#079a11"/><path d="M307,303.56l-7.13,22.9a16.62,16.62,0,0,1-6.77,4.67c-15.21,5.05-35.24,17.81-50.45,22.86-21,7-28.34,8.56-50.43,9.89a21.07,21.07,0,0,1-7.83-.94c0-.41.09-.84.16-1.27,0,0,44.85-4.3,78.38-29.64S307,303.56,307,303.56Z" transform="translate(-4.36 -11.4)" opacity="0.58" fill="url(#linear-gradient-2)"/><path d="M322.87,274.28c-3.14-.44-6.47-.58-9.33.77-4.72,2.21-6.84,7.63-8.53,12.56l-30.9,90.18c-2.68,7.82-5.38,16.23-3.18,24.19.87,3.15,2.64,6.21,5.5,7.77a17.24,17.24,0,0,0,4.52,1.48q28.68,6.48,57.68,11.49c4.54.79,9.48,1.49,13.54-.68,3.51-1.87,5.64-5.52,7.5-9A221.6,221.6,0,0,0,385.2,304.29a24.21,24.21,0,0,0-1.36-8.76c-3.26-7.86-12.93-10.42-21.3-12-6.9-1.28-14.12-2-20.92-3.67C335.22,278.34,329.52,275.11,322.87,274.28Z" transform="translate(-4.36 -11.4)" fill="#079a11"/><path d="M160.72,346.92c-4.66-.11-9.63.15-13.48,2.78s-5.88,8.43-3,12.12c2.49,3.23,7.2,3.44,11.27,3.36l15.34-.27c3.79-.07,7.71-.17,11.14-1.8,2.58-1.23,5.08-3.71,5.58-6.63.61-3.51-2.6-4.41-5.45-5.63C175.38,348,168,347.09,160.72,346.92Z" transform="translate(-4.36 -11.4)" fill="#fadea5"/><path d="M392.68,237.37c-1.19,5.7-3.71,11-6.22,16.29q-5.08,10.71-10.16,21.41c-2.36,5-4.71,9.92-7.51,14.64a62.85,62.85,0,0,1-7,9.78c-2.42,2.7-5.29,5.19-8.78,6.22a12.44,12.44,0,0,1-15.71-14.06c.77-4.34,3.83-8.23,3.6-12.63a5.6,5.6,0,0,0-.55-2.3v0a10.75,10.75,0,0,0-2.66-2.81A17.54,17.54,0,0,1,332,259.17a29,29,0,0,1,2.59-8.45c2.32-5.29,5.13-10.35,7.82-15.47,1.86-3.58,5.54-8.62,5.29-12.79-.15-2.5-2.48-4.82-1.34-7.34,1.7-3.77,8.59-4.56,12.06-5.28a42.47,42.47,0,0,1,15-.7c7.08,1.08,14,4.92,17.47,11.2C393.67,225.45,393.89,231.66,392.68,237.37Z" transform="translate(-4.36 -11.4)" fill="#fadea5"/><path d="M357,205.05c-4.66-.12-9.49-.16-13.8,1.63-2,.83-4,2.23-4.48,4.32a6.38,6.38,0,0,0,.75,4.38,15.16,15.16,0,0,0,8.22,6.86,38.2,38.2,0,0,0,10.73,2A6.92,6.92,0,0,0,361.3,230a13.17,13.17,0,0,0,6.2,2.33c2.78.39,6.1.57,7.56,3a7.21,7.21,0,0,1,.79,3.53,35.82,35.82,0,0,1-4.23,18c2.63.28,4.95-3,7.42-2.09,1.7.66,2,3.15,1,4.64a6.52,6.52,0,0,1-4.77,2.31,4.32,4.32,0,0,0-2,.5,3.65,3.65,0,0,0-1.07,1.46,49,49,0,0,0-4.26,13.13,5.48,5.48,0,0,0,.2,3.45c1,1.89,3.75,2.05,5.69,1.15,2.79-1.31,4.57-4,6.17-6.68,5.76-9.55,16.44-12.86,17.69-23.94.61-5.45-2.07-16.39-2.54-21.84-.72-8.53-7.36-13.71-14.2-18.32C373.91,205.84,365.22,205.26,357,205.05Z" transform="translate(-4.36 -11.4)" fill="#3f3d56"/><path d="M389.7,245.49c-1.86.1-3.42,1.37-4.83,2.6q-2.83,2.49-5.58,5.1a26.29,26.29,0,0,0-5.14,6.1,14.09,14.09,0,0,0-1.74,7,3.24,3.24,0,0,0,.39,1.71,2.47,2.47,0,0,0,3.09.59,7.21,7.21,0,0,0,2.45-2.37,13,13,0,0,0-1.71,9.61,23.23,23.23,0,0,0,4.16,9A19.72,19.72,0,0,0,386,290.2a2.24,2.24,0,0,0,1.34.46,2.31,2.31,0,0,0,1.08-.46A24.83,24.83,0,0,0,397.7,279a4.58,4.58,0,0,0,.46-2.05,5.76,5.76,0,0,0-.52-1.7,21.69,21.69,0,0,1-1.42-11c.49-3.77,2.48-8.12.91-11.84C395.9,249.52,393.29,245.28,389.7,245.49Z" transform="translate(-4.36 -11.4)" fill="#fadea5"/><path d="M459.56,369.16c-5.84,5.21-22.13,10.06-34.05-3.84l-.42-.5C410.6,347.7,402.46,326,392.17,306c-2.92-5.66-5.85-11.88-4.71-18.16a16.13,16.13,0,0,1,5.71-9.1,14,14,0,0,1,8.5-3.46c5.54-.11,10.06,6.44,13.42,10.19,4.59,5.16,8.77,10.64,12.9,16.17,8.09,10.83,16,22,26.07,31.07,5.05,4.54,10.91,8.94,12.88,15.45C469.2,355.7,465.39,363.94,459.56,369.16Z" transform="translate(-4.36 -11.4)" fill="#079a11"/><path d="M361.44,360.06c3.76-10.59,7.12-21.36,12-31.47a5,5,0,0,1,1.88-2.4c1.61-.88,3.56.14,5.09,1.14a233.36,233.36,0,0,1,43.78,37.38c-3,3.31-8.38,1.21-12.2-1.07l-29.82-17.82c-1.52,10.78-6.59,32.45-12.57,45.75-3.29,7.32-8.58,20.86-13.71,27-2.85,3.43-7.8,6.63-20.48,3.31-4.46-1.17,1.55-6.06,3.34-9.65,1.72-3.43,3.48-6.84,5.14-10.3A420.61,420.61,0,0,0,361.44,360.06Z" transform="translate(-4.36 -11.4)" opacity="0.58" fill="url(#linear-gradient-3)"/><path d="M448.29,366.74l-23.2-1.92C410.6,347.7,402.46,326,392.17,306c-2.92-5.66-5.85-11.88-4.71-18.16a16.13,16.13,0,0,1,5.71-9.1c.18,2.66,1.92,11.59,14.57,36,10.65,20.54,28.34,43.16,28.34,43.16Z" transform="translate(-4.36 -11.4)" opacity="0.58" fill="url(#linear-gradient-4)"/><rect x="1.16" y="351.18" width="511.28" height="11.7" fill="#079a11"/><rect x="0.9" y="351.44" width="511.28" height="5.59" opacity="0.58" fill="url(#linear-gradient-5)"/><path d="M346.18,296.73a5.85,5.85,0,0,1-2.29,1.14,5.17,5.17,0,0,1-6.77-5.16c0-.35.08-.71.14-1.06.77-4.34,3.83-8.23,3.6-12.63a5.6,5.6,0,0,0-.55-2.3A23.62,23.62,0,0,0,355.53,279C363.73,277.23,348.33,294.59,346.18,296.73Z" transform="translate(-4.36 -11.4)" fill="url(#linear-gradient-6)"/><path d="M366.93,403.3c-.15,8.77-3.22,17.3-6.52,25.48-2.15,5.33-4.53,10.83-8.89,14.59-7,6.06-17.14,6.21-26.38,6.06-13-.22-26-.56-38.82-1.4-13.82-.92-27.63,3.18-41.44,3.18-10.67.17-23.41-1.81-29.8,9.52-4,7.06-2.14,22.81-4.6,32.94l-.09,0q-16.33-2.32-32.44-6h-.07c-1.91-9.14-2-21-2.43-27.45q-.88-13.68-1.21-27.4c-.12-4.59-.14-9.36,1.75-13.55,4.41-9.69,16.75-12.26,27.33-13.43,25-2.83,51.53-8.49,76.65-8.58,29-.09,58.06,1.68,86.93,3.52C367,401.6,367,402.46,366.93,403.3Z" transform="translate(-4.36 -11.4)" fill="#3f3d56"/><path d="M366.93,403.3c-.15,8.77-3.22,17.3-6.52,25.48-2.15,5.33-4.53,10.83-8.89,14.59-7,6.06-17.14,6.21-26.38,6.06-13-.22-26-.56-38.82-1.4-13.82-.92-27.63,3.18-41.44,3.18-10.67.17-23.41-1.81-29.8,9.52-4,7.16-2.1,22.94-4.69,32.92q-16.33-2.32-32.44-6c-2.12-8.81-2.07-20.72-2.5-27.46q-.88-13.68-1.21-27.4c-.12-4.59-.14-9.36,1.75-13.55,4.41-9.69,16.75-12.26,27.33-13.43,25-2.83,51.53-8.49,76.65-8.58,29-.09,58.06,1.68,86.93,3.52C367,401.6,367,402.46,366.93,403.3Z" transform="translate(-4.36 -11.4)" opacity="0.58" fill="url(#linear-gradient-7)"/><path d="M352.29,441.81c-6.45,5.33-14.69,8-22.85,9.94a175.47,175.47,0,0,1-45.89,4.74c-3.45-.1-7.49,0-9.53,2.76a10.2,10.2,0,0,0-1.47,4.18,117.3,117.3,0,0,0-1.69,27.94c0,.3.14,2.62.28,5.57a235.55,235.55,0,0,1-30.41-.18l-2.86-.2c-.71-12.74-1.55-28.11-2-35.8-.46-8.19-.9-16.53,1-24.52s6.34-15.75,13.57-19.64c3.71-2,7.91-2.88,12-3.73,15.22-3.14,20.23-7.35,35.54-10.05l26.52-4.88c8.88,2.16,40.63-3.6,42.4,5.36C368.57,411.53,358.76,436.48,352.29,441.81Z" transform="translate(-4.36 -11.4)" fill="#3f3d56"/><path d="M305.19,451.5c-5.52.08-11-.35-16.54-.53-3.43-.12-7-.12-10.16,1.11s-6,3.95-6.46,7.36c-.49,4.11,2.72,7.95,6.54,9.55s8.11,1.51,12.25,1.38l19.86-.64c13.89-.44,28.15-1,40.95-6.37,9.17-3.86,17.14-10.05,24.75-16.46,3.59-3,7.18-6.17,9.77-10.1s4.08-8.78,3.08-13.38c-.68-3.16-3.05-6.34-6.29-6.45-6.25-.2-9.74,8.86-12.92,12.92-4.06,5.18-11.92,7.54-17.82,10.1C337.36,446.43,321.48,451.29,305.19,451.5Z" transform="translate(-4.36 -11.4)" fill="#079a11"/><path d="M270.81,101.93l-.92.47a8.77,8.77,0,0,1,.56-.68C270.57,101.79,270.69,101.85,270.81,101.93Z" transform="translate(-4.36 -11.4)" fill="#fff"/><path d="M270.81,101.93l-.92.47a8.77,8.77,0,0,1,.56-.68C270.57,101.79,270.69,101.85,270.81,101.93Z" transform="translate(-4.36 -11.4)" fill="#fff"/><path d="M315,117.25a30.19,30.19,0,0,0-6.8-33.66A41.47,41.47,0,0,0,301.9,12a514.63,514.63,0,0,0-74,8.43c-30.89,6-61.53,15.49-88.06,32.4S91.06,94.66,81.5,124.64c-7.22,22.7-7,47.37-11,70.75a142.34,142.34,0,0,1-4.35,18.71,48.65,48.65,0,0,0,76.66,15.08,48.66,48.66,0,0,0,91.55,14.27,48.64,48.64,0,0,0,75.51-59.63,35.38,35.38,0,0,0,24.89-23.93,33.85,33.85,0,0,0,1.15-5.18A35.24,35.24,0,0,0,315,117.25ZM264.26,85.89c.13.07.27.14.39.22l-1,.52A6.94,6.94,0,0,1,264.26,85.89Z" transform="translate(-4.36 -11.4)" fill="#fff" opacity="0.68"/><path d="M286.42,58.56c.18-.25.38-.5.59-.74a3.78,3.78,0,0,1,.4.22Zm72.63,63a35.3,35.3,0,0,0-21.29-32.4A30.17,30.17,0,0,0,331,55.53a41.43,41.43,0,0,0,17.66-34,42.15,42.15,0,0,0-1.05-9.33,244.63,244.63,0,0,0-28-.75q-8.83.16-17.66.56a514.63,514.63,0,0,0-74,8.43c-30.89,6-61.53,15.49-88.06,32.4S91.06,94.66,81.5,124.64c-7.22,22.7-7,47.37-11,70.75,20.51,10.25,49.56,18.38,62.35,18.38a48.42,48.42,0,0,0,32.72-12.66,48.65,48.65,0,0,0,91.55,14.27,48.66,48.66,0,0,0,77.64-55.49,46.12,46.12,0,0,0-2.13-4.14,33.77,33.77,0,0,0,3.28-1A35.28,35.28,0,0,0,359.05,121.58Z" transform="translate(-4.36 -11.4)" fill="#fff" opacity="0.68"/><path d="M270.81,101.93l-.92.47a8.77,8.77,0,0,1,.56-.68C270.57,101.79,270.69,101.85,270.81,101.93Z" transform="translate(-4.36 -11.4)" fill="#fff"/><rect x="88.24" y="252.13" width="27.32" height="98.8" fill="#079a11"/><rect x="27.92" y="287.49" width="27.32" height="63.44" fill="#079a11"/><rect x="58.36" y="252.13" width="27.32" height="98.8" fill="#079a11"/><rect x="88.24" y="252.13" width="27.32" height="98.8" opacity="0.58" fill="url(#linear-gradient-8)"/><rect x="27.92" y="287.49" width="27.32" height="63.44" opacity="0.58" fill="url(#linear-gradient-9)"/><rect x="58.36" y="252.13" width="27.32" height="98.8" opacity="0.58" fill="url(#linear-gradient-10)"/><rect x="88.19" y="292.29" width="27.29" height="28.32" opacity="0.58" fill="url(#linear-gradient-11)"/><rect x="58.45" y="292.29" width="27.18" height="28.32" opacity="0.58" fill="url(#linear-gradient-12)"/><rect x="27.89" y="292.41" width="27.18" height="28.32" opacity="0.58" fill="url(#linear-gradient-13)"/><rect x="15.71" y="333.25" width="112.28" height="18.21" fill="#079a11"/><circle cx="319.16" cy="212.88" r="6.07" fill="#fff" opacity="0.68"/><circle cx="328.93" cy="220.64" r="3.5" fill="#fff" opacity="0.68"/><path d="M229.44,98.86s6.58-11.64,29.34-2.53,27.31,16.69,27.31,21.24-4,27.81-4,27.81L194.8,169.66l-48.55-29.59,7-17.78,74.18-18.55Z" transform="translate(-4.36 -11.4)" fill="#079a11"/><path d="M235.64,110.07c1.68,1.38,3.9,1.87,6,2.5,9.46,2.83,17.46,9.08,25.21,15.2a4.27,4.27,0,0,1,2.06,4.8L267.74,148l-36.87,4a66.36,66.36,0,0,0-12.07,2.06c-7.54,2.28-14.07,7.16-21.61,9.43a3.74,3.74,0,0,1-2.71.08A3.45,3.45,0,0,1,193,161.3c-1-3.4-.48-7.09-1.53-10.45-1.14-3.62-3.94-6.47-6.91-8.84a104.64,104.64,0,0,0-13.35-8.59l-11-6.28c-3.54-2-7.5-4.14-11.49-3.29-.36-1,.28-2,.94-2.78,3.91-4.66,9.54-7.52,15.21-9.73,10.06-3.91,20.68-6.12,31.32-7.83,5.45-.87,10.91-1.6,16.38-2.38,3.87-.55,8.87-2.34,12.75-1.28C231.05,101.41,231.63,106.78,235.64,110.07Z" transform="translate(-4.36 -11.4)" fill="#079a11"/><path d="M266.26,99.49a4.09,4.09,0,0,0-1.56-.43c-1.65,0-2.56,1.83-3.59,3.12-1.23,1.54-3,2.52-4.53,3.76a16.25,16.25,0,0,0-5.35,8.1,2.94,2.94,0,0,0-.16,1,2.51,2.51,0,0,0,.47,1.19,10.16,10.16,0,0,0,2.23,2.21q3.6,2.88,7.27,5.71c1.67,1.28,3.63,2.62,5.69,2.2,1.74-.35,5.79-1.23,6.95-2.57,2.72-3.15,2.16-2.75,5.63-5.06,1.61-1.07,5.07-6.19,3.8-8.24a18.3,18.3,0,0,0-4.78-4.71A56.81,56.81,0,0,0,266.26,99.49Z" transform="translate(-4.36 -11.4)" fill="#fff" opacity="0.68"/><path d="M262.28,121.9a3.94,3.94,0,0,0-1.32-2.65,6.53,6.53,0,0,0-1.09-.7l-6.15-3.44a10.56,10.56,0,0,0-1.51-.74,9.79,9.79,0,0,0-1.31-.37,14.07,14.07,0,0,0-4.94-.48c-.27,0-.58.13-.68.38a6.21,6.21,0,0,0,1.78,1c5,2.24,8,7.34,12.67,10.21.64.39,1.91.83,2.15-.23A9.64,9.64,0,0,0,262.28,121.9Z" transform="translate(-4.36 -11.4)" fill="#079a11"/><path d="M262.08,124.05c-5.26-4-10.73-7.75-16.77-10.19a.78.78,0,0,1,.64-.33,13.31,13.31,0,0,1,4.94.47,9.93,9.93,0,0,1,1.32.37,11,11,0,0,1,1.5.74l6.16,3.44a7,7,0,0,1,1.09.71,3.94,3.94,0,0,1,1.32,2.64A7.14,7.14,0,0,1,262.08,124.05Z" transform="translate(-4.36 -11.4)" opacity="0.58" fill="url(#linear-gradient-14)"/><path d="M254.92,117.73a1.19,1.19,0,0,0,.11.89,1.35,1.35,0,0,0,.85.5,4.75,4.75,0,0,0,4.86-1.83,1.08,1.08,0,0,0,.25-.83c-.1-.4-.57-.58-1-.68-.92-.25-2.53-1.09-3.33-.45A4.6,4.6,0,0,0,254.92,117.73Z" transform="translate(-4.36 -11.4)" fill="#fadea5"/><path d="M276.39,111.8a7.26,7.26,0,0,0-1.9.92,8.86,8.86,0,0,0-1.74,2.1,29.22,29.22,0,0,1-4.64,5.23,11.2,11.2,0,0,0-2.22,2.29,3,3,0,0,0-.29,3,17.09,17.09,0,0,0,13.54-7.92,17.82,17.82,0,0,1,2.16-3.25,11.25,11.25,0,0,0,1.22-1.27,1.67,1.67,0,0,0,.23-1.66C281.77,109.42,277.65,111.34,276.39,111.8Z" transform="translate(-4.36 -11.4)" fill="#fff" opacity="0.68"/><path d="M244.51,85.07a4,4,0,0,0-1.55-.42c-1.65,0-2.57,1.83-3.6,3.12-1.23,1.53-3,2.51-4.53,3.75a16.25,16.25,0,0,0-5.35,8.1,3,3,0,0,0-.15,1,2.53,2.53,0,0,0,.46,1.2A10.12,10.12,0,0,0,232,104q3.6,2.89,7.27,5.71C241,111,242.92,112.38,245,112c1.74-.35,5.79-1.23,7-2.57,2.73-3.15,2.17-2.75,5.63-5.06,1.61-1.07,5.07-6.19,3.8-8.25a18.46,18.46,0,0,0-4.78-4.71C252.92,88.66,248.69,86.84,244.51,85.07Z" transform="translate(-4.36 -11.4)" fill="#fff" opacity="0.68"/><path d="M254.64,97.38a6.93,6.93,0,0,0-1.89.93,8.66,8.66,0,0,0-1.75,2.1,28.39,28.39,0,0,1-4.63,5.22,11.51,11.51,0,0,0-2.23,2.29,3.06,3.06,0,0,0-.29,3A17.12,17.12,0,0,0,257.39,103a18.48,18.48,0,0,1,2.17-3.26,11.07,11.07,0,0,0,1.21-1.26,1.68,1.68,0,0,0,.23-1.66C260,95,255.9,96.93,254.64,97.38Z" transform="translate(-4.36 -11.4)" fill="#fff" opacity="0.68"/><path d="M255.8,111.62a5.09,5.09,0,0,0-1,3c.18,1.55,1.73,2.6,3.25,2.94a8.24,8.24,0,0,0,8.52-3.66,5.86,5.86,0,0,0,.79-1.77,5,5,0,0,0-2.06-5.16C260.87,104,257.79,108.09,255.8,111.62Z" transform="translate(-4.36 -11.4)" fill="#fadea5"/><path d="M260.18,104.77c-.27,0-.59,0-.71.29a.49.49,0,0,0,.1.54,1.4,1.4,0,0,0,.47.32l1,.48a1.42,1.42,0,0,1,.51.32,1.89,1.89,0,0,1,.33.61,2.45,2.45,0,0,0,1.11,1.44,2.42,2.42,0,0,1,.76.36,2.3,2.3,0,0,1,.38,1,1.76,1.76,0,0,0,.58.86,3.78,3.78,0,0,1,1,.74,1.38,1.38,0,0,1-.07,1.47,10.17,10.17,0,0,1-1,1.2c.11.17.37.15.56.07a1,1,0,0,1,.59-.15.5.5,0,0,1-.07.6,1.51,1.51,0,0,1-.53.36l-.77.36c-.21.1-.46.28-.37.5s.44.17.67,0A6.3,6.3,0,0,0,268,113a5.48,5.48,0,0,0,.28-2.09c0-.68-.12-1.36-.21-2a3.25,3.25,0,0,0-.33-1.19c-.45-.75-1.42-1-2.14-1.47a18.22,18.22,0,0,0-1.49-1.17,3.42,3.42,0,0,0-1.75-.32C261.64,104.77,260.91,104.75,260.18,104.77Z" transform="translate(-4.36 -11.4)" fill="#3f3d56"/><path d="M268.92,132.57q-.57,7.71-1.17,15.43l-36.85,4a65.49,65.49,0,0,0-12.08,2.07c-7.54,2.27-14.08,7.15-21.61,9.42a3.74,3.74,0,0,1-2.71.08A3.49,3.49,0,0,1,193,161.3c-1-3.4-.48-7.09-1.53-10.45-1.14-3.62-3.94-6.47-6.91-8.84a103.49,103.49,0,0,0-13.35-8.58q-5.47-3.15-11-6.29c-3.54-2-7.5-4.14-11.49-3.3-.35-1,.28-2,.94-2.77,3.91-4.65,9.54-7.52,15.2-9.73,10.07-3.91,20.7-6.12,31.33-7.83,5.45-.87,10.91-1.61,16.37-2.38,3.88-.55,8.89-2.34,12.76-1.28,5.72,1.56,6.3,6.93,10.31,10.22,1.68,1.38,3.9,1.87,6,2.49,1.25.38,2.48.81,3.68,1.3,6,2.44,11.51,6.19,16.77,10.19,1.6,1.23,3.19,2.48,4.76,3.72a4.31,4.31,0,0,1,2.06,4.8Z" transform="translate(-4.36 -11.4)" opacity="0.58" fill="url(#linear-gradient-15)"/><path d="M246.38,115.26c-.12.21-.21.5,0,.67a2.85,2.85,0,0,0,1.64-1c-.21.21-.5.33-.7.55a.55.55,0,0,0,0,.79.59.59,0,0,0,.69-.12,2.19,2.19,0,0,1,.6-.46c-.34.24-.72.54-.75,1a.38.38,0,0,0,.19.4.52.52,0,0,0,.43-.07,5.6,5.6,0,0,0,1.17-.82,1.58,1.58,0,0,0-.65.49.53.53,0,0,0,.11.73.54.54,0,0,0,.51,0A2.61,2.61,0,0,0,250,117a2.34,2.34,0,0,1,.85-.39.7.7,0,0,0,.24-.09.4.4,0,0,0,.11-.38c-.14-1-1.67-1.3-2.39-1.68A1.66,1.66,0,0,0,246.38,115.26Z" transform="translate(-4.36 -11.4)" fill="#fadea5"/><path d="M256,121.08c-.12.21-.22.5,0,.67a2.91,2.91,0,0,0,1.64-1c-.21.21-.5.33-.71.55s-.28.61,0,.78a.6.6,0,0,0,.7-.12,2.23,2.23,0,0,1,.6-.46c-.34.25-.72.54-.75,1a.4.4,0,0,0,.18.4.54.54,0,0,0,.44-.07,5.64,5.64,0,0,0,1.17-.83,1.48,1.48,0,0,0-.65.5.53.53,0,0,0,.11.73.57.57,0,0,0,.51,0,3.36,3.36,0,0,0,.43-.31,2.38,2.38,0,0,1,.85-.4.54.54,0,0,0,.24-.09.42.42,0,0,0,.11-.38c-.15-1-1.68-1.3-2.39-1.68A1.66,1.66,0,0,0,256,121.08Z" transform="translate(-4.36 -11.4)" fill="#fadea5"/></svg>