<?xml version="1.0" standalone="no"?><svg xmlns="http://www.w3.org/2000/svg" viewBox="0 0 1440 320"><path fill="#007e33" fill-opacity="1" d="M0,0L18.5,37.3C36.9,75,74,149,111,154.7C147.7,160,185,96,222,80C258.5,64,295,96,332,122.7C369.2,149,406,171,443,186.7C480,203,517,213,554,229.3C590.8,245,628,267,665,272C701.5,277,738,267,775,250.7C812.3,235,849,213,886,197.3C923.1,181,960,171,997,165.3C1033.8,160,1071,160,1108,170.7C1144.6,181,1182,203,1218,213.3C1255.4,224,1292,224,1329,234.7C1366.2,245,1403,267,1422,277.3L1440,288L1440,320L1421.5,320C1403.1,320,1366,320,1329,320C1292.3,320,1255,320,1218,320C1181.5,320,1145,320,1108,320C1070.8,320,1034,320,997,320C960,320,923,320,886,320C849.2,320,812,320,775,320C738.5,320,702,320,665,320C627.7,320,591,320,554,320C516.9,320,480,320,443,320C406.2,320,369,320,332,320C295.4,320,258,320,222,320C184.6,320,148,320,111,320C73.8,320,37,320,18,320L0,320Z"></path></svg>