<?xml version="1.0" standalone="no"?><svg xmlns="http://www.w3.org/2000/svg" viewBox="0 0 1440 320"><path fill="#007e33" fill-opacity="1" d="M0,32L40,58.7C80,85,160,139,240,170.7C320,203,400,213,480,224C560,235,640,245,720,250.7C800,256,880,256,960,261.3C1040,267,1120,277,1200,277.3C1280,277,1360,267,1400,261.3L1440,256L1440,320L1400,320C1360,320,1280,320,1200,320C1120,320,1040,320,960,320C880,320,800,320,720,320C640,320,560,320,480,320C400,320,320,320,240,320C160,320,80,320,40,320L0,320Z"></path></svg>