<?xml version="1.0" standalone="no"?><svg xmlns="http://www.w3.org/2000/svg" viewBox="0 0 1440 320"><path fill="#007e33" fill-opacity="1" d="M0,0L0,224L110.8,224L110.8,32L221.5,32L221.5,128L332.3,128L332.3,192L443.1,192L443.1,224L553.8,224L553.8,288L664.6,288L664.6,256L775.4,256L775.4,192L886.2,192L886.2,160L996.9,160L996.9,160L1107.7,160L1107.7,224L1218.5,224L1218.5,224L1329.2,224L1329.2,288L1440,288L1440,320L1329.2,320L1329.2,320L1218.5,320L1218.5,320L1107.7,320L1107.7,320L996.9,320L996.9,320L886.2,320L886.2,320L775.4,320L775.4,320L664.6,320L664.6,320L553.8,320L553.8,320L443.1,320L443.1,320L332.3,320L332.3,320L221.5,320L221.5,320L110.8,320L110.8,320L0,320L0,320Z"></path></svg>